<svg width="614" height="579" viewBox="0 0 614 579" fill="none" xmlns="http://www.w3.org/2000/svg">
<path d="M593.008 3.5C594.808 3.5 595.708 5.29999 595.708 8.89998C595.708 12.5 594.808 14.3 593.008 14.3C567.208 14.3 548.908 20.6 538.108 33.2C527.908 45.8 522.808 67.4 522.808 98V575.9C522.808 577.1 521.308 578 518.308 578.6C515.308 579.2 513.208 578.9 512.008 577.7L105.208 77.3L89.9082 60.2V472.4C89.9082 503 95.0082 524.6 105.208 537.2C115.408 549.2 133.108 555.2 158.308 555.2C160.108 555.2 161.008 557 161.008 560.6C161.008 564.2 160.108 566 158.308 566C143.908 566 132.808 565.7 125.008 565.1L81.8082 564.2L37.7082 565.1C29.9082 565.7 18.2082 566 2.6082 566C1.4082 566 0.808204 564.2 0.808204 560.6C0.808204 557 1.4082 555.2 2.6082 555.2C28.4082 555.2 46.1082 549.2 55.7082 537.2C65.3082 525.2 70.1082 503.6 70.1082 472.4V41.3C49.1082 23.3 27.5082 14.3 5.30821 14.3C3.50821 14.3 2.6082 12.5 2.6082 8.89998C2.6082 5.29999 3.50821 3.5 5.30821 3.5L37.7082 4.39999C44.3082 4.99998 53.6082 5.29998 65.6082 5.29998C75.8082 5.29998 84.2082 4.99998 90.8082 4.39999C97.4082 3.8 102.508 3.5 106.108 3.5C110.308 3.5 113.608 4.69998 116.008 7.09995C119.008 8.89997 122.308 13.1 125.908 19.7C132.508 30.5 139.708 40.7 147.508 50.3L503.008 492.2V98C503.008 67.4 498.208 45.8 488.608 33.2C479.008 20.6 461.608 14.3 436.408 14.3C435.208 14.3 434.608 12.5 434.608 8.89998C434.608 5.29999 435.208 3.5 436.408 3.5L470.608 4.39999C488.608 5.59997 503.008 6.19997 513.808 6.19997C524.008 6.19997 538.708 5.59997 557.908 4.39999L593.008 3.5ZM333.457 489.5C333.457 508.7 336.157 522.8 341.557 531.8C346.957 540.2 357.157 546.2 372.157 549.8C387.757 553.4 412.357 555.2 445.957 555.2C447.757 555.2 448.657 557 448.657 560.6C448.657 564.2 447.757 566 445.957 566C421.357 566 402.157 565.7 388.357 565.1L310.057 564.2L250.657 565.1C239.857 565.7 224.857 566 205.657 566C204.457 566 203.857 564.2 203.857 560.6C203.857 557 204.457 555.2 205.657 555.2C229.057 555.2 246.157 553.7 256.957 550.7C268.357 547.7 275.857 542 279.457 533.6C283.657 524.6 285.757 511.1 285.757 493.1V76.4C285.757 58.4 283.657 45.2 279.457 36.8C275.857 28.4 268.357 22.6999 256.957 19.7C246.157 16.1 229.057 14.3 205.657 14.3C204.457 14.3 203.857 12.5 203.857 8.89998C203.857 5.29999 204.457 3.5 205.657 3.5L249.757 4.39999C274.957 5.59997 294.757 6.19997 309.157 6.19997C323.557 6.19997 340.057 5.29998 358.657 3.5C405.457 1.69999 430.957 0.799981 435.157 0.799981C487.957 0.799981 530.857 13.1 563.857 37.7C596.857 61.7 613.357 98.6 613.357 148.4C613.357 188.6 603.457 222.5 583.657 250.1C563.857 277.1 538.657 297.2 508.057 310.4C478.057 323.6 446.857 330.2 414.457 330.2C396.457 330.2 381.757 328.7 370.357 325.7C368.557 325.7 367.657 324.2 367.657 321.2C367.657 319.4 367.957 317.6 368.557 315.8C369.757 314 370.957 313.4 372.157 314C381.757 316.4 392.557 317.6 404.557 317.6C447.157 317.6 483.157 304.7 512.557 278.9C542.557 253.1 557.557 215.6 557.557 166.4C557.557 134.6 551.257 107.3 538.657 84.5C526.057 61.1 508.657 43.4 486.457 31.4C464.857 18.8 440.857 12.5 414.457 12.5C389.857 12.5 372.457 13.7 362.257 16.1C352.057 18.5 344.557 24.2 339.757 33.2C335.557 41.6 333.457 56.6 333.457 78.2V489.5Z" fill="#FFFFF4"/>
</svg>
